<mxfile host="app.diagrams.net" agent="Mozilla/5.0 (Windows NT 10.0; Win64; x64) AppleWebKit/537.36 (KHTML, like Gecko) Chrome/129.0.0.0 Safari/537.36" version="24.7.17">
  <diagram name="Page-1" id="8XA1ykHK2etNYb3j49ta">
    <mxGraphModel dx="1221" dy="608" grid="1" gridSize="10" guides="1" tooltips="1" connect="1" arrows="1" fold="1" page="1" pageScale="1" pageWidth="850" pageHeight="1100" math="0" shadow="0">
      <root>
        <mxCell id="0" />
        <mxCell id="1" parent="0" />
        <mxCell id="NZATjLTDSDdueHZk3MDT-20" value="" style="rounded=0;whiteSpace=wrap;html=1;" vertex="1" parent="1">
          <mxGeometry x="121" y="122" width="499" height="318" as="geometry" />
        </mxCell>
        <mxCell id="NZATjLTDSDdueHZk3MDT-1" value="" style="image;aspect=fixed;html=1;points=[];align=center;fontSize=12;image=img/lib/azure2/app_services/App_Services.svg;" vertex="1" parent="1">
          <mxGeometry x="357" y="195.25" width="68" height="68" as="geometry" />
        </mxCell>
        <mxCell id="NZATjLTDSDdueHZk3MDT-2" value="" style="image;aspect=fixed;html=1;points=[];align=center;fontSize=12;image=img/lib/azure2/ai_machine_learning/Bot_Services.svg;" vertex="1" parent="1">
          <mxGeometry x="180" y="195.25" width="62.75" height="62.75" as="geometry" />
        </mxCell>
        <mxCell id="NZATjLTDSDdueHZk3MDT-3" value="" style="image;aspect=fixed;html=1;points=[];align=center;fontSize=12;image=img/lib/azure2/databases/Azure_Cosmos_DB.svg;" vertex="1" parent="1">
          <mxGeometry x="366" y="340" width="50" height="50" as="geometry" />
        </mxCell>
        <mxCell id="NZATjLTDSDdueHZk3MDT-4" value="" style="image;aspect=fixed;html=1;points=[];align=center;fontSize=12;image=img/lib/azure2/devops/Application_Insights.svg;" vertex="1" parent="1">
          <mxGeometry x="440" y="130" width="30.03" height="43" as="geometry" />
        </mxCell>
        <mxCell id="NZATjLTDSDdueHZk3MDT-5" value="" style="shape=image;verticalLabelPosition=bottom;labelBackgroundColor=default;verticalAlign=top;aspect=fixed;imageAspect=0;image=data:image/png,iVBORw0KGgoAAAANSUhEUgAAATMAAACkCAMAAADMkjkjAAAAbFBMVEU6l93///80ldwnkdsvk9wsktz5/P4hj9tPoeD0+f3t9fzo8vt6teay0/C21vHC3PNyseXN4vXb6/hep+KSwepmq+PT5vaXxOtJnt/a6vi+2vLH3/RLn9+gye2IvOh0suUAidmozu6BuedfqeLrOjl7AAAXR0lEQVR4nO1dC7erLM5WQPHSq1Zr291W2///H78EUMErdnfPnFmfz1oz79mtFXhMQgIkOs6KFStWrFixYsWKFStWrFixYsWKFStWrFixYkUfBMAYw//8t7vyAaDrlHIu/wej+A806FHqBNlh89pkWVoQaPZ/iDnCKPl5nvd5ksRRkuT7+yYg1Pu7EYBw0eC1u4RuCz/en1LC/ydoI5Rk1cV3O/CTKoOv/qRF5hx2YbdB2ertUVD2F41+D6CR2a7HVzOC64F436aN0XQ7TJhq9Pgk/wHT8CnggZ+jie4DonvxVWFj/JBPt4iNnr//qL4Ez6lGRUzDtvjaYyf8kFi0CMJ2Jv+ihhLvbnbzctvez4D7dn8xlaf60gBocLRiDBE+/saY/gKEPjVeouu5gKneYwIeeB3F6RprfL747wdA2L1PzQTywPvCQL8H5lzbJ7qFCbKrfuAMsGzbGrtb8VtR8wI7tdSe1OlfEjWWNWwkj1GPAr54XBpmn/RXTdLXQsYQ+3/HW6OnulPxpidhBghtjfadf94iodUHlEH/in+ENL5VPfIf8/4j46/a8N0+NmqE3D6iDLqYWtsEDC44hH2M0ynxVFdhjGjtDxBa93/vWPWHkZrj/EOng7DLICFhvH1kaRAEafa65yOObmbVSbAjwel6hNgvii97CCZGaGO0eF0veBWEiOfULtIhrKZsY2thQUGVH5d/ZF8IG3Jj4+rtYEwrAdIBgx6i1rcgjbH0ajrnyWNIIBjZ5IZLGt0yiyF5irI4WDAREif5BWl0gLLb2+utAYDWFPd+XDKrnrrRbRH23GLCHgNRT/ya057ali0cfCOdt+WzJ732+rkrRkwj8eijp6Ph9ERAnBFPOcoMTaJBPHxdMu1H1TPmbannQ+hO/rJaSho9d/t4nAxhGb13I7p4ShJoNh4A7lpRm/SoNxODIpm8Zv+Bs1hL6GaZc1s32SB8zTXuFV1lvo6PiT7GqQC23+qXbNqjPo82QBwp9/lH/rXSMf9nyY+J0zEhuUVAQWhXJl5jP/I2U1QAToINanfZUANS8fuiPhSD9w0eldPaZUkYSPdm33Z27gp/mQrnj5g0ks5wAS2CgPSeQR+HEd9Ehi99QSE/9x7N9NSbrmqZOduTxg5mzypbt9h7m6SNzD10xKzrOLLaFk8hdIZ6VmtmzyAhF1UnMOJ3N/zpXSht09hDHwA3NbPbygRYapL2HNJOz2qlJN/PXwPyONQ3Ko34tvudFB/zJ0KY+6QpGb/ZDr0zpl7TU2Cm2kUDz4k4NmTYYsBOk0K13fUkCykLW40gIsca9vxeJnXhbSdotWQrHJe5KR3z/ugLGuu5Mb/Btt+AssZdzawpc+/aF0xN4GHQIYdJ7cztRu9Vep/iQYsxDsaNn4f9IRELa2YPv9c9JWY5736s2jVXeurVrp6kUTn1plahrSlmdsF282PvfuCGT/XqTV3zk+Yi9KZOT1qzzPy8lbIOl2OkkR/x8d5m/Oyk92iRMSN8E8GDD/QbxF3hNu//e1Qdf4AQ8cw7YtZ4nAO+Rk1axwdVgmajZ1QXk3CBMSNUeu23cqvdoSfc1H5HxgpJp4tEWihzxm6U5zwgA7Xr7Juzp1KIu4U3b0RNJ3vN9JyaqszRHY5uBEVn9maXouuiyfUYU7xbxRyUAdaop3ErKT2XeQqMGaCnWKNg5NQQlXB9ZuyMqWMuv4Cfzv1FPwyNbSgbkjLBzmaINCWx3Rm1D8OfPduKGTnok+GBuMZfxpWFzY72EpguFNv0iJyRMkHa0ESgujpLgjGrDUcmg5QZo7iUethjKue3p83uBCmdM11BGsme2k4atGlchOqzDqoxq+2tVbMTQf68tT9i07K+3S/D9F1lT7atapJiwvwPkKapoiRjdh40VjRGVg0GwEzvvyp1o2UEun/MmXJoW9ljjS2bGXo9hLBd5VA6kc3QwLXBWqsmgBpWKi4r7S+DetN7+waMIcmR+03P2c+M+Z8iTWn1Y5oGI362jLUkZ4ZP5jq63JlzmPPtOcBwAOVaeNxQNjdjGmNoSKt/LhW96zV3OdO9s5lrDXSU81Vof5hGlH7Z1/ANbWBi9qmftrViqq51XQ55t5kdKKKv08/psfFDU+WupeaymJ76wIbWr2DenQuPVk0BrDb/J03KGKe8tViU6uup9KmegyJNTgLdSKMDY5tn0akLAioXRgrhnmsRUjTkQH0Nd0MbpO8uXarGlunbBux1ifJ6x8o75FHy0L71atKkTZN9Daf1mmmOVbhoEQgngYw20MMJU3uIrrZfQMc9EzSJxRQSKCkzSJH9kgv9avFMc0wa0uREoCb5ac50VyNatAokOMt2WwWuCazJmUM/PTkziNg0ujKMwZm6WcnQKWtMiOgS8/u0NzYNtUxxNu0/8Hy0NxacFa015LpvbEZs3R2a36ET2XC/4ezUp6z50D3hFUqm3Eq/R23TcD1DOWjTRopq51WSJXImNE7bXJvgzGrbyRZ+Z9G/5ayOaA46Z826Oi7YNJbVcBC89284WyJn6KSEZavZU5yRTw5PjuDe6aSmm/WkuRnSTUFDvZSg66anvC2xN6p0c/qUDNc4W6Sb+ACPZTNZ+gZn3efEvyZovb0lyZkIp1hak6YpjFr4lguJSuqu2kBZTZng8W/nANwEuLdRZjgxB3wz5uydbjB8jYY0fWI8JWHjXrDNJYzPg5Qt8DU0h3OJryFkPm2piLkWS3VtDoys+g5l/YUXw6dtvA1d0hh4QkT/Q5fCOgx6yw+X+7RLQvQdrpq1PGlq2l0Mku0sPUE/iIFFBBll1LETCZQ3MXXsqkWXsj+NnYSYPbS1ja2+PjLwnMjPNyL1gX3ETozeSpoFaZ5ygtojmr3FuMHBmzG6LWl49DbWdwE2P9p9hpYu2dP9NU4DY+muBS0graHs3VkLmtlIMteC+Pz2gewosvUkmmgx3Z0Y3O3qH6RcisGt196aozVpfco+WnMkh+mLFcRksy+r9peJsSEw3Ca3OCo1hZGF9/7admPTJsWlr5jN2vac/2CsbT9/Bo6o9MCwUxHFSfOwkZSfuWauxg5x2ZwvG8dx5NSnjGZ1E8oKi4mgpszVz+/JrdLuwY8+AboveuO7edMp/G3gBZzJI+cyfHJ0szgag5mnYZZh9Di2msX0vTr2o5TnNTqaISmr9+pmN9KNrTTf2VRzP/DwlJ7/Fn5REcRP7tzA09CXLsaXey0Of47gOnq2WA3UaJQFM6QNUlbTP38yyNgTvvN4ehog4gC2n3FU6VN5wfzN8pAaS2QTx974hxPBOGXDZw9a0gZFYJgyFVPMeLTi95XWt5A+JiN1mVAa/wjKrqXU663p5g8ddWzwGWnbqWEo62LuM7bqOUDaCGUqnu+uAgzAjAXPZTzeQcKFyd9TkRl14fUvTTGb9gj5ZKLACGWTRlltbB3NiyZs2ghlDpfToc0Kv74c5PpeKvZsBg6tEpqh7EbP8o3dSWjt2m9LY5dkxsdbnlU7l5Gq5uOOGWr2U16dn7MRypSnZ3U0lhlPHt2uEy9SMyQgjDoPwdidS0XMeb0tFlHjNNZldqZeGBHM7lTWZ0M7g20kzVi4baQs7CYJKK/LKoAkxDgg9uQJkPa8B/WeFlYMKl4yFH5Q/hJXb3ltZd3UPGA2eNrdgLeItNP85q46Fdg9OdGSpvsT9TGNLmXKgZh95GoMhgcQFiDUWxrcbgcqhO1V7VDC8upRlOwuvO5oU25qJ/ZUGuf6bU6weRP5Yl08LMagTsL21iPrvbutfs6qkqPspaJ4cuXFcp2CEGOn+0JTzHfiJz/eZlgFqwh+fpyy5Gxz9VUfWu90W5rHZTc2bXrdjLRRjHulOrg0qL1cEClpZtAluu73fDAVDlsfv+icEr6VOKRzSc/QYrKvzo/H43zf1ytgu58ya1bDdqW5qWTh3IgW33YHEuyWwZozIYdeogToTDdzBUjr5+fWqSELcnfM9fpricoTbzh/3jpadDmRMmid/qrs2CbbJTgW2KhnZrtDoeax/pokC/qZrPTek7Lapo8fjOyhm7255yJZNz47JcnO+zgMfT+MjtWmKOlTW5A9l51zBRbhat1kMC9p1pSBtst92qQXLwzlIvaTBnmdymjdYH+d5qjKRvj5uaC8hJ4QBv9xNnttjgyzsuPVLznA1hzhGYNNVYAG9andibTbCdSbGZbLh6rJbn5NHJR1bmaU3Lb3+73aXzoaTHorYvbnJB3tRMoIZfYlO8TdlF21l/QW9Yz2WFb5qH9S+FySbfczDUlapt1dywU5jKJNZ2Lbs5/4NoN6s3C3uCRLTdlgmuMUvF5IE2elsx2x1JesJL0VxNm1ui560q1RZleIRYdyOEYXJ8c6US+FLjnlqTCwBXl8l94j79EWb4PS6VU9WJyQh/0d28KLPqivRVROupss4Zs56pRP8lFNkoE83WRDSnLY5ZFkyA+T27ngPB2Qv15CpA0IGSy3E39UkowwRZp/sK99k4UfP3HEYDKXf3sVvOSkCNL0x4E5lGTVkEb1PWu7TpOBRj8tc9WQ5m4tayyxqhaOzygD4R45XBfdqtPm8M6ej/OuX+5VStlnlOnjbPCRlsibNboSbuanAsKbBKRPy1Jhk1Mz5RQ+sT9No50n9TllTjt7wm0yPtknxt/N09r+pqYj/yw/Nf9QsgUINwzp549cgB6a+OLyomMHA4hHN+05MLuFgPEmM7vg2UD1yyqv+sbn8bd1DplWyymu0n5RclwPTO+tTc57dSOWYrR81Ch+W0LS0ZNaFleVGhgBfWg2N9m9UKo8rEqPtVY95my2mofzlQqehD8WHeG5Lvc++6gDvi9Q5qComXY5zq/V+QQ4V9e8EwAW36kUyxz7QwJx9p1Cq9J2L45eRkBoYTWEffCFgr51k4Hdkf5o432rdjR/xLFdkpIVCHWqGcscbr9boxxYu85qKAQJX2wTX4Txvbvh1Eiex/Fa+MfNwDLab5ukxXnqPGd4Tf/Vou41COPOYRf337kQX5+OfQXXZU3S4Dzs9sf7wx+96OHLwGK4TvrYHS9xHGLl1uP1lGHN8r/rPL5N5H3eJ+3iYBgftxto9N+pFj0LQsDXoJxjgWDxDpm/7zoRx8NJ8X6/A3FU3PuHX0/xT0HV9P1vd2PFihUrVqxYsWLFihUrVqxYsWLFihUr/l/hG2vYzPvaDujfY8n75olRDwb/xN96m2WvEhi8cZXEvXxOIgrz2e1lkLqO33+AeVbtrc9qkuK215JjiXO7nYhIQPvkuKfRi9x1o7yTDkrS2x5wPY0c9DCuzcS1+/3NpiDDL8Fju5dUIEROcXscE5OtdwxzUxa8uWf4xic3IV5BCEv1T+sMKX+oAAYher/b+pm7v39r8WLOGkETqT87UXNu0avIBkBvmA5OSBHpJa+As/idZY94SI7JT6RX0gLO8jRD/FbkLbCQs8QPa/PCQDgEZwOvKFvaiVwVwHM7nCUcN7jjgaoSJHUjk7Mj/09tEy7k7HJrikzjUKScUTUiRjm+yBb/AUOVp1RJ/Vn3D9b+2ytzN4N/U8cNeXOx4AwPANGrKpoldp25OP1B+I8blW29MuSsOSwEzTueKMkrdsTlRdhLwsUcQTytei/eU1xB1PTB6utZp5viIw8urjnzqEXlg8CNszrBF3q5Pwt7VuRX2eYmD93wGBBW5QdnH4JNJ/R1gc9u8nWG3nsPf+SYhlhfnHGsJXYM3csxz45H1z8e89o4NpztZcUUQu6J70a7AtpM8xyvPdbX6pyxTX6mVRQCxxu4s39MhQHJrxzUPLp7pNiFbnxSj3Rz8V0sr0dOuWjFu8sOppeK4ddH7KYol0k2F7xvXEjOiLfNd/NnvoEznqjUS9Cn7C44C0SxQnGAP8lj90To0X1EbhjB47ngZ5EslYsZs3jBHU1XLv+N7/9UycpuneGpc4a6WfjiIywo6F/gEbgbVk8P/iBnZ3d7c0NXnCQVrUOP4RdR5SYJnrf0XcxiE/qO5QMv8OHNwzRL/ITKIhbe1j2zZkziI+j/dg/3DSRnIP7hvCEXnD1kvg95uxdec4bpjEBUnIJjmh3wUHp8KWBe83L3UsBnL0ylxmpgB+qx95NgGmTy43n4arEH+IfgajyxAbBnenMwB6Tv7OSLeROrD+0I3KySNX/AnunlFjfuraRSzYCzJMpI4Hi7K/jKMLbcE5NwXFAszJvEDqUnwTfcDD5kRYzp+yE+Giy2gJrkxdAK27txAN08+FjqDA24n5FCyhmtBl5mN8yZB7MldhkU5qVzBp2W6VrADXDm48ENaF/OGPyMPwS1RhtDxEOXxdvoA39LKM4BRM4BrRFvhEm8FRU8m6P4OfB9pUK6eXstNO/HAgXBomsZE/fz1MwCjR5kRjUmreJQYdzQ5A8wx0R+YuJRYapBvo4wTcOPYopelBgTMB0RoScHfGsycgZDssroE+x4kqgC7uJpnEGLTZlN+Leo8QKipzwTiqWwCtdXh2rZrk5OpqJESDtv6vVwYJjh/nbDSn3gQLBQZX2ChIOE9efNRrNRzuTd8QQ2iB5+iDfDn8PARVqfYAj+uArpLEH9UVSpQ8PjA7/ZgDrCY1K1amgE3YSrY9EkcBY8LJOQBDuYBo+xDpglpnHGo7ZkEvRHWFjazMlgBZ8M80iuGcoKv9TVNeCxg1aM+xo4IrJH8ftxXUWE6MCAr6HZM5UFTIv7FQ2g5ExcTx7uVfTtCn2EHiUyfPDRBcQiEm/3XLh7Ct+kBLqlXhAH/5IMU8XZ2Xg9yhxnDtuikPg+PMRK40xzPKlySMTTqdsEm+RhXmJy8JBMlcOP9E7ImZAXAvfZsKCuBkuE4Rn1zwRnwm2U9UDiW6U4i3XOmOBMS3EICE3clN7dAh4wpehdQzfVoxVSAJzJ+4pKBpZHxyU7ODJ6xpmkw1k6zhm9CFI8B536F/ZOZVeDnL3YDGdSxwPXrzmblzMxNjSxBzD3fEjOas7uTiEh1LbiccLBpL1/sNgGkPdibTd1zp7+bHUinTO8wSZ25azT2rOkfdFhzRlQoSprUl9KIXilWzCuMIEo48f9SXumOEvgPsRXyo9sqTlgmjMUDiwqQEY5A4N1pe0pQwqzPOYXHdzzCSXM29WvQq/tWcNZ8LasF6E4QyMsPHOdM7Bticg7kPOm4Az6FwujDzP7hcoQC3jxKXwhJ1RwNrCMWs2ZMxQ7EZ4Jzbm6e2mB9yjjJHDDOc5yUSwGk8FH7BlMjLICgywUwaPwBNwQEuY3X/odqpsHdEF1zlJ6sHv9jOJMlJlDe6RzhlbmRjjn2ZPUnOFrZHP87IDXk8MZT/g+gAi8w8XBi33pAEjO8FUHEEPpnIHmpJWoSoMLBBXe4C7GiTUfgjaJcJCzPUyRlOPbn0c4w34k2A9yfUp3JsGLoP/RBe8G/qX4OvWRfYMzgqXGRt8obnAWKUORYPsNZyIOwLrf6HU/RBwg1QhLYwhPfOPhiwx84VOjV46vVhV/COXFeVQ8Tyw0HWlxgIKor46FW/0LRlypYgTc+ZE4QC4dAMshxh0dzvaKszOrOyg7JSquCIf/rF7dRJxEfY2ZLyZnIh1zqHhwh7Of+Ca5uIgVLXKKMQ4qEvEpc7aR78dbDMRiVUGJOPfY96N9IBz5K3wfXWWBfiK+uKWiUW8Xywrz5Br6TcI3eccXQF6lqrC4uEFcySVIAhGt32Q6k0O7zMtesapon17gdg+eJMDZOz7KoDEW1TvZPUb7TpwK+3FUrl8u+kGcOJFRESFn+Do8ih4096U3UcySnpN4/k3MhKpnqZYAZOxPlDoR4XXj/3nt2oQnFj5kBxhp/o0ZOO0fjqdSsPDX7Vq7Wq9u0ljE5az+s3tt+8hZvcBNPGGquIgfVN/b5QvWdrruR7MG0qSE6d1s7svk14x+I3NsaPVK/8z4fnipa7oX5m/me2yznDZzzXpwf8WKFStWrFixYsWKFStWrFixYsWKFf8t/B+/IiVZrkApbwAAAABJRU5ErkJggg==;" vertex="1" parent="1">
          <mxGeometry x="120.87" y="20" width="149.76" height="80" as="geometry" />
        </mxCell>
        <mxCell id="NZATjLTDSDdueHZk3MDT-7" value="" style="shape=image;verticalLabelPosition=bottom;labelBackgroundColor=default;verticalAlign=top;aspect=fixed;imageAspect=0;image=data:image/png,iVBORw0KGgoAAAANSUhEUgAAARwAAACxCAMAAAAh3/JWAAAA8FBMVEX///9kZGQ0bp5GhbdgYGBdXV3/6HJZWVn/1j49eqtWVlaOjo6srKxeXl7/2kz/4mL29fXMzMx8fHzv7+/Z2dlAfq9oaGj/31lzc3O9vb3ExMT/5Wo5daX/3VP/42T/4F0WYZf/6oD/887i4uIuerH/1Cy1tbWioqKGhoaYmJhVjbvo6Oj/0yb/3k7Kysr/1TrN2eT+55nA0eIhbaRGRkaApsl0mbv++++uxduNr84rdq7b5OxdibFpmMF7m7o5OTn+7qH/763++N3/8cJojbD+6oeeudT/213+44v/4H22yNoAV5L+6Kb+7LT+3Wv//PMSucgWAAAKTElEQVR4nO2cCVebShuAJ8qEOCEKWUnUaM0CMWqsqa1rb1vvov1s7///N98sEGZgiKDGpLfvc07PiUBgeHjnnY0UIQAAAAAAAAAAAAAAAAAAAAAAAAAAAAAAAAAAAAAAAAAAAAAAAAAAAAAAAIDSs0bLLsKKMvYMYpaXXQqE7NOLy9vDRp9yddVfv728OLWXXSZkkULBWLqci8N+v9FYFzQoGxtXV9OP10suloWXL+es31+PaAg5lJ3p+XILtgJyvl+tx90EcnamN0st2fLl2Cxs+oe3fSluQjk708/LLNry5VxQKw2aXexDNW6Ym52d/WXmnTeQ026fdNo1p0c/djQt0DmNmzP2odZPutlZe9vQqZdr0l9vIKfeazp15Pq03/BHL7n7lsoRzjRudtamCy2bQs8yCHljOQhV6c1XqRzL18ihtakvSqRzs7a/4LJF2B8qhcIS5NArVjsO8i29nMbf7MNpX+Nmbf/N+oI27fItSY5rj3ptTy9nvX9Zs7/3o4YqcvObyEG+Z6fJWWfjBqWHE7r578tx6RWbqO2iUZqcsBFvxCrVbyDHDv4h3Y0exvrFqpv/vpy5HKoDh4bq5jeXE+dGcQNyFG4UN/nk2I41qjaNplse1hL7Om58U41hhx/HJpVj9vhGsV+VM647jiZnMhyv2sQGveo4pWDjjuc3MW76Xj3DbZydr/dDrhjTENUNk7Pd5RS/fJp/znaVmNgw6C0WDEx8RU/HJ5jEv4AJIR9O+McqIcwNtUPYRvHdSE7PcukBFFJO+vGIWQmv6jrJctVHmODgiIqJh0+paSRmcDQNVSjnXVGwvfd1zjk9gg1+eYxFOUhHKh+h28z4V5pMhrgbn38nhKhyHJfgcJdBPPUkjsn3GeKpFEg1Fur0y4YolvBTMN25leFcVqMdUWnlzLNzwouISaHsWVYZ8/KSdiSHV5k5ctIjZ1RzWTLCNGyEIXVWmU2lFgzT9EflJqnw8JHr1rhKxG5rOPSqRDw2Y46dyxxulMjZ3m5905/SY0U0DSssV5twO7Mq8KQce5ZzbDXnFFzToOHStJxer+NyPaZUMbgb0xWZpOaJy46l3QYLpjDR1Mr8CRjVVDenedxEcrYZ3aL2lLyIFakaoR4vZiGzHJTWWvG79cO7s0hBOcjh37Giy4qbD//02Z9NOQcPxQlS0/J6HjehHKGm293Vhk6ZPh9sKZtOWLlm214iB8t3N2I1p+LJXzHlC/OHUgkrXpWVS35m9ASGfII4Z8nASYw29XK63a2t1peMcpDLShE2UC+QEzsvlkODXddQewhDLEUGl9NW9vOrpNar8xQ3G1o3bD5HhA13s7XXyipHhE77pXLinUAuLDhqTDRVhMtzU+WIdjHR5QpoJNzMqVQUhLpBlWJu9o51nR2dHCQ/oteT0xNpm3/2WB1rxk4qQqeXKofvT5FT68fczEs4lM/o09YsbPb2Wsd3WeVUeb2yX1mOSDMiWthtVuKXrZGoLurkdObIkdqqLG72T9GP7ixs9lqt4/dZ5ViV6DZeTw6K5PDkaya6xOyswd3nlXPRyONm7U9aq7rcDVfTau3+zCqHlyLorL+iHHMmp43VTk3AKGoJ8sq51CWcVDc7CH3disKmtbu7W8oqhwsxRouTw1NOYsAWpOzxc+Tc5nCzf4PQt1bgpiXc7Jb+zSiHp07DX5ycsqGVwwNKHJFXzqHiZrYoPp3uJ/jzlLvZiqoUZbOkaa60cnhDGxRjIXJ4o5w4qbh7cdq8cnQj8enNxXXNVhHzLF931bDZ3dwsafrIWjm82Qha2sXJwa8vR0nGG6f6Qz/dbe8l3GxODpJHLkdOSrV6gZzEfPr0I9168OWvd3G6rT0lE3M1OeQsvFqNXj3n3MaTMXXzjQ4QihLhKDMZNpRB1molEnJ1cXLkkUTsW8HmvHLOG6qbBkJ3W0UVaSglZWJBaZA1ITuLbspPoo8yL+jn/N1QGqrpKfq2pVWjq1LUTWmgOalWzlAaUy9EDq+38XtHyI16EHnlnPWVhor2ZIqauFH6xIqb0j9Z5fB8KQ8fEunhhXLEADyxdEOijnleOdfKmvj0Ozro6tVow6ZUmmQeW4l5ZLRAOdousrhU7Vly0JXcM55eoy+JXJySibmb0kDTWGnl1KUOclCt4qsqL5XD65V5ou73jGimJLec2w1p1DC10V9ZM7FAl3K0cngXjQS3zvs8iclJnRx5HPmUHN3ElS1PgOWWc9GXRlRTaeHlqUzMmdynyYlNrDhSLweJ9JBodgvqlIM0U5NRDnduKnfPJpnDeM0vx55Ko01ZzrauSm2qbkpHqRPsBdOTloP4Oos0hRksJMh26nyWWZJTjSt+Ug6yzFi0nXBdYUFyy0GfJTnRqlSWsKGBo2urAjmFCvHUdStTqkfBauOspPWqWLyR5HTMWHQ9LQf5WPlzqM4q55cjQmdHI2duJhaBo0vHgRz23InrtU/ansHjBvvSIWIwUcDmaNjpDMvYDNZ/5Zm8pqF2XDLIQXydj5SdGrLHbZfrjTJ0fjnobDqbwgnlZMjEPBs/6M/Il0jKTVa0CjZxRWQYXzmmJ5bQCwbGfDXdwKYbk1Pjh2Di+nZmOags1oPZKjKfU5b3PUMO+j4Np7eEnGxVirrRV6qgtRqithHGA7vFeNfV9kkl2GlUTOK2+SyzMgccHhK+SEAqlcTvrQiuVJTlGKcwu6qByUheB3fZsXE59KR4jhx0/ZG/bbK//z8qZ1vtEx9TAiMTymDG0eAx7XyzptwZYfamCCGu7kWPnlcg/AlXvRN2D6wTFxsb9Tw3epHA8SzLizum2yxPnTh2RhVCWOxUY68FDdkJYoOvOtsW77DGuD7lICpHCZvjgzRS3iFgyP2cWr1eT3nHCPEXBqJHq5HDj7Hzv01mj3u9xPj85bxTM/Hxc86hHT48DRs/J1cPVomimomP36toO31xnimHfS05H7NKFGOZWOoNM440iw0JnimHNSbJmbxVoqhvwENDi5TDGpn4UvdqUUxpwCeDyYLl2Cvx49+5FPd0feLJ7o+7nwMmJ8s5nieHzaMmJ/JWiqK2T8xXxN9PFiqnuvKNFdpuafrEwRLDYJFy2ubcVxdXgne6TBwo2ZwsTg4fuJP07uJK8PVYM5QKIueoNNG9cZIgv5waf9GTPPU2+bL5t6Sb8ONDzHsaOLoXuRLklFM78fnr0iR/6//W/ChpRuCT0uPjP4PSIFPg5JDT61i+IX4IgCtZfqSxbN5PkrMTtJtD+zmpcxQx2HxcNjkjEvwywvwFwoZzVyrF3XA/R7o1Kh2OT3A2OWwJ18AmqXaePnZVeCxN4mYGRw9P/IRIxm43094KV4/7QJq+5Sz//+bJxcF96YjWpImY4DoaPGTKxDK/2A3n5NPB4/3Dz58P9493OWIGAAAAAIAVwNax7EKtBMqb67Ua+JGItLD/NGE8Fv+LAtjh2IqdAJAToE04oCYCzAAAAAAAAAAAAAAAAAAAAAAAAAAAAAAAAAAAAAAAAAAAAAAAAAC/LP8HZVRoO1XFki0AAAAASUVORK5CYII=;" vertex="1" parent="1">
          <mxGeometry x="266.45" width="64.18" height="40" as="geometry" />
        </mxCell>
        <mxCell id="NZATjLTDSDdueHZk3MDT-8" value="" style="shape=image;verticalLabelPosition=bottom;labelBackgroundColor=default;verticalAlign=top;aspect=fixed;imageAspect=0;image=data:image/jpeg,/9j/4AAQSkZJRgABAQAAAQABAAD/2wCEAAkGBw8PEA4PDhANDw0NDQ8ODQ8NDw8NDQ0OFREWFhURFRUYKDQgGBsxGxMVITEhKCkrLy4uFx8zOD8sQygtLisBCgoKDg0OGxAQGy0fICUtMC0tLS4tMCstLS0tLS0rLi0tLS0rLS0tKy0tKy0tLSstLSstLS0tLS0tMCs1MSsrLf/AABEIAOEA4QMBEQACEQEDEQH/xAAcAAEAAQUBAQAAAAAAAAAAAAAAAQIEBQYHAwj/xABHEAACAQMAAwoHDQgCAwAAAAAAAQIDBBEFEjEGBxMhQVFSYXGTFDJUgZGSoRUWIjM0QnJzdLPC0dIXI0RiscPh8FPBJIKy/8QAGgEBAAMBAQEAAAAAAAAAAAAAAAECAwUEBv/EADMRAQACAQEEBggHAQEAAAAAAAABAgMRBBIxUQUUIUFSkRMyYXGBocHRFTNCcrHh8CMi/9oADAMBAAIRAxEAPwDuIAAAAAAAAAAAAAAAAAAAAAAAAAAAAAAAAAAAAAAAAAAAAAAAAAAAAAAAAAAAAAAAAAAAAAAAAAAAAAAAAAAAAAAAAAAAAAAAAAAAAAAAAAAAAAAAAAAAAAAAAAAAAAAAAAAAAAAAAAAAAAAAAAAAAAAAAAAAAAAAAAAAAAAAAAAAAAAAAAAAAAAHlc3EKUJVKklCEVmUpPCRatLXndrGskzo07Se7eTbjbU0o/8AJVy2+yK2eds6uLo2OOSfhDKcnJiHuqvs54bzcHSx/Q9PUcHh+cq79mS0fu2qxaVxCNSHLKn8CouvGx+wwy9HUn1J09/++6YyT3tysL6lcQVSlJSg+Li2xfM1yM5OTHbHbdtGjWJ1XJRIAAAAAAAAAAAAAAAAAAAAAAAAADA5rus0w7ms4Rf7ijJxglsnJcTm/al1drO9sezxiprPGf8AaML21lgz2KAADJaA0tK0qqab4OWI1o9KHP2rav8AJhtOCM1NO/uWrbSXUoTUkmmmmk01safKfOTGj0KgLa+v6NvHXr1adKGzWqSUU3zLO19RemO150rGqJmI4sJ7+9GZx4Q+bPA3Gr6dU9PUNo09X5x91fSVZyxvqNeOvQqU6sNmtTkppPmeNj6jzXpak6WjRaJieC4KJAAAAAAAAAAAAAAAAAAAAsdN3DpW9ea8aNGo4/S1Xj2muGu9krWe+YRM6Q5MfTPMkgAAADpm5G4c7ShnbGMoeaMnFexI+f2yu7ntp7/ONXop6q53QaWhZ29SvPj1FiEdjqVHxRj6fQsszwYZy3ikJtOkauI6V0nWuqjrXE3ObzjkhTj0YL5q/wBedp9LixUxV3aRo80zM8VmXQvdEaUrWlVVrebjNY1lthUj0ZrlX9OTBnlxUy13bQmJmODt2gtKwvLelcU+JVF8KL2wmniUX2NPt4nynzWbFOK80l6azrGrIGSQAAAAAAAAAAAAAAAAAAY7T1F1KFaC2zpTiu1xePaaYrxTJW090wiY1hybXPptXmSpDUVZAkAB0jchScLakntac/Wk5L2NHz22X3s1pj3eXY9FI7Gtb7dd6lpT+bKrVm/pRjFL2VJHs6Kj/wBWn2R/vkpl7nNzssQAB0zemrvgbmD8WNaMo9TlDD/+UcXpSI36z7G2Lg385bUAAAAAAAAAAOKboN0Ve7qzm6k40dZqlSjKUYRhniyltljaz6PBs9MVYjTt75ee1pmWK4efTn60jbdjkqjwifTn60huxyFPhE+nP1pDdjkI8In05+tIbschHhE+nP1pDdjkI8In05+tIbschDrz6c/WkN2OQ83J87LCqlXlB5TfWuRgZylUyk+dZKxKXsiUL/Q+j3XqJY/dxac31dFdZ5tq2iMNPbPD7rVrrLp1jT1YrsPnnoarvjaNlXt9aCbnQlwqS43KOGpJebj/APU9uwZox5e3hPZ9lMkaw5QfQvOAAOtb3ejZULdOaxUrSdWSe2KaSjF+ZJ+dnzu3ZoyZezhHY9FI0huJ41wAAAAAAAAAA+eUz6t5RsCMgRkCGwKcgRkCMgRkCGwNvtNAXGrH4vDinnWezHYc/r2KOOvk03JZay3OybXCS4ujDl87/IxydJdmmOPjP2TGPm2/RWjYwSSiopbEjmXva871p1lpEaM1FYKpW17Q1kBzzT+46M5SnRapTk25RazSk+dY8X2nS2fpG1I3bxrHz/tnbHrwa/70bvOP3OOfXlj+mT2/iWHTv8v7U9HLYdz+46NOcalZ8LOLTjFLFKL5+Pxn/uDw7R0hbJG7SNI+f9L1xxHF0Kzo6qOc0XQAAAAAAAAAAA+d0z6t5TIF9oK0jXurejPW1KtWMJarxLD5mZZrzTHNo7kxGsulfs4sOldd5D9JyPxHL7Gvo4R+ziw6V13kP0j8Ry+w9HB+zew6V13kP0j8Ry+w9HCP2bWHSuu8h+kfiOX2Ho4c43V6Op2t5Xt6Ws6dJ01HXalL4VKMnl9smdXZsk5MUWnjP3ZWjSdGIyboRLY+wkdnstI2Dp0//Jts8HDK4SOU9VcR83bZ8s2nSsvRvQvqWkrFfxFv3kSOrZvDPkb0c1zHTlmv4ih3kR1XN4Z8jejmq93rPymh3kR1XN4Z8jejmh6ds/KaHeRHVc3hnyN6OaxrbodGNtO8tE1xNOrBNMdWzeGfI3o5vD3Y0b5Zad7AnqubwT5G9XmuKW6DRsf4y072A6rm8E+RvV5vdbqNHeWWvfQHVc3gnyN6ObK0a0KkYzpyjOElmMoSUoyXOmuJmExMTpPYsrIAAAAAAAAAB87Jn1byoyB6WtzOlOFWlLVqU5KUJJJ6sly4fEVtWLRpPA10Zj36aT8rn3Vv+kw6ng8Pzn7rb9m7b2mm7q7d34TWlV4LgODzCnDV1uEz4qXRXoOdt+HHj3dyNNdfo0xzM8XvvlaXubSlbytqrpSnWlGbUac9aOo3j4SfKV2DFTJaYvGvYZJmODQPftpTyufdW36Tp9TweH5z92e/bmw1/e1bipKtXm6lWpjXm1GLliKiuKKS2JchvSlaRu1jSFZnVbtlhS2BmLDYuxGNVmSgaqqwAADD6fppcHP5zbg+tYys+j2kSMfBmkCslABve9RfzVavbZboyouuot8UKkZwi2l1qfH9FHL6UxxuRfv10/n7NcU9ujqBxWwAAAAAAAAA+dEfVvKjIEZAjIHRd57bf9lt/dOV0n+j4/Rri711vv8AxFp9ol92ynRnr29xl4OW5OwyRkCMgUtgZqw2R7EY1WlkoGqqsAAAxO6LxKf1n4WVsljKZpVD0LIANv3r/ltT7HU++onO6U/Jj930lpi4uto4TdIAAAAAAAAD5yTPq3lRkCMgRkDo+87tv+y2/unK6U/R8fo1xd6534fiLT7RL7tlOjPXt7k5eDlmTsMUZAhsCnIGcsNkexGNVpZKBqqrAAAMRuj8Sn9Z+FlbJY2kaVQ9CyADbt7D5bU+x1PvaRzulPyY/d9JaYuLriOE3SAAAAAAAAA+cEz6t5TIEZAhsDo+85tv+y2/unK6U/R8fo1xd6534viLT7RL7tlOjPXt7k5ODlbZ2GKGwIyBS2BntH+LHsRjVaWSgaqqwAADEbo/Ep/WfhZWyWNpGlUPQsgA27ew+W1PsdT72kc7pT8mP3fSWmLi64jhN0gAAAAAAAAPm5M+reUbApbAjIG872Gm7W0d54TVjS4Twfg9ZSetq8JnYv5l6Tnbfhvk3dyNeP0aY5iOL33ztP2l3Rto21aNWUK0pTUVJYjqNZ40V2DBkx2mbxp2JvMTHY55k6bJGQIyBS2BsGj/ABY9iMapZKBqhWAAAYjdH4lP6z8LK2SxtI0qh6FkAG3b2Hy2p9jqfe0jndKfkx+76S0xcXXEcJukAAAAAAAAB82Jn1bymQIyBS2BGQIyBGQIyBDYFLZI2LR/ix7EYVSyUDVCsAAAxO6LxKf1n4WVsljKZpVD0LIANz3rqLdzWqckLfUfbOpFr7tnM6Ut/wA619v8R/bTFxdXRxG6QAAAAAAAAHzzpzRdSzr1KFVOLhJ6jfEqtPPwZx501js2ch9PiyxlpFqvNMaTox7kaIRrARrAQ5EiMgQ2QIbJEZAhJt4W1kTMRGsjZbKOElzJGNUyyMDWEKgAADDbop/FR53KXoSX/ZWyWPpmlUPQsgA6xuA0Q7egnNYq1nwk09sVj4MfMva2fO7dnjLl7OEdkPRSukNzR41wAAAAAAAAB5XFtTqrFWFOpFcaVSMZpeZk1tNeE6C29xrTya17in+Rf0uTxT5o0g9xrTya17il+Q9Lk8U+ZpB7jWnk1r3FL8h6XJ4p8zSD3GtPJrXuKX5D0uTxT5mkNf3Y7naNW1rQpUKMKmprU3TpQhLXi9ZJNLPHjHnL4s9ovEzadPeiYjRxtWZ19Lc2R4H1DS3MVRslzDS3MXVtapcheK80MpQhg2rCF1EuhUAAAa9ptydbEoyiowioaycdZbdZZ2rj29RSJi09ncl4wRtCr1oUZVJKNOMpzeyME5P2C1q0jW06QRGrdty25NxlGrcJOaacKa+FGD6Unyvq2Lr5ONte378bmPh3y2pj07ZdJs6OqjltVyAAAAAAAAAAAAAAAAt7unrJgcr3T6G4GtKcV+7qyclzRntcf+1/g7Wx5YyU3Z4x/DG8aSw3gx7N1TVKtxumr0hRLRUe0YltEK0BIAC80TYuvUUfmLjm+rm7Wefas8Yaa988P97Fq11lulTRCnHEoxlHoyipR9DPnotMTrEvQsfevb5+T0O7ibdZzeOfNXdjkyNnoeMFiMYwjzQior0IytabTradVmYtrRRKi6SAkAAAAAAAAAAAAAAABDQGF01o6NSMoyWYtcf5rrL472paLV4omNXPtI6NnQlhrMM/BnjifU+Znf2faaZo7OyeTC1dFpqnoVMAAJAAXFlZzrS1YL6Un4sV1/kY5s9MNdbeXNaKzLfNBaKjSikl1tvbJ87OBmzWy23rN4jSGwRgjJJqICVECQAAAAAAAAAAAAAAAAAAApnDIGI0ho1ST4k09qaymTEzE6wNUv8Ac7xt03q/yyy4+navadHD0jaOzJGvt7/95M5x8mJq6Lrx+Y31xal/k91Ntw2/Vp71JpLx8Eq/8dT1JGvp8XijzhG7PJ609G1pbINfSxH+pnbbMNf1eXabksnZbnm2nUef5YZS9J4svSU8McfGfsvGPm2rRui1BJKKilsSXEc217XnW06y1iNGapU0kVHoAAAAAAAAAAAAAAAAAAAAAAAAQ0Bb1bWMuQCzqaMTA8vcoD0p6MQF5RtIx5ALlRwBIAAAAAAAAAAAAAAAAAAAAAAAAAAAAAAAAAAAAAAAAAAAAAAAAAAAAAAAAAAAAAAAAAAAAAAAAAAAAAAAAAAAAAAAAAAAAAAAAAAAAAAAAAAAAAAAAAAAAAAAAAAAAAAAAAAAAAAAAAAAAAAAAAAAAAAAAAAAAAAAAAAAAAAAAAAAAAAAAAAAAAP/2Q==;" vertex="1" parent="1">
          <mxGeometry y="187.88" width="82.75" height="82.75" as="geometry" />
        </mxCell>
        <mxCell id="NZATjLTDSDdueHZk3MDT-9" value="" style="endArrow=classic;html=1;rounded=0;entryX=-0.051;entryY=0.556;entryDx=0;entryDy=0;entryPerimeter=0;" edge="1" parent="1" source="NZATjLTDSDdueHZk3MDT-8" target="NZATjLTDSDdueHZk3MDT-2">
          <mxGeometry width="50" height="50" relative="1" as="geometry">
            <mxPoint x="90" y="230" as="sourcePoint" />
            <mxPoint x="140" y="180" as="targetPoint" />
          </mxGeometry>
        </mxCell>
        <mxCell id="NZATjLTDSDdueHZk3MDT-10" value="Azure Bot&lt;div&gt;Service&lt;/div&gt;" style="text;html=1;align=center;verticalAlign=middle;whiteSpace=wrap;rounded=0;" vertex="1" parent="1">
          <mxGeometry x="183" y="258" width="60" height="30" as="geometry" />
        </mxCell>
        <mxCell id="NZATjLTDSDdueHZk3MDT-12" value="" style="endArrow=classic;html=1;rounded=0;" edge="1" parent="1">
          <mxGeometry width="50" height="50" relative="1" as="geometry">
            <mxPoint x="390.5" y="263.25" as="sourcePoint" />
            <mxPoint x="390.5" y="343.25" as="targetPoint" />
          </mxGeometry>
        </mxCell>
        <mxCell id="NZATjLTDSDdueHZk3MDT-13" value="Cosmos&lt;div&gt;DB&lt;/div&gt;" style="text;html=1;align=center;verticalAlign=middle;whiteSpace=wrap;rounded=0;" vertex="1" parent="1">
          <mxGeometry x="361" y="390" width="60" height="30" as="geometry" />
        </mxCell>
        <mxCell id="NZATjLTDSDdueHZk3MDT-14" value="state mgmt" style="text;html=1;align=center;verticalAlign=middle;resizable=0;points=[];autosize=1;strokeColor=none;fillColor=none;" vertex="1" parent="1">
          <mxGeometry x="390.03" y="288" width="80" height="30" as="geometry" />
        </mxCell>
        <mxCell id="NZATjLTDSDdueHZk3MDT-15" value="" style="endArrow=classic;html=1;rounded=0;" edge="1" parent="1">
          <mxGeometry width="50" height="50" relative="1" as="geometry">
            <mxPoint x="390" y="190" as="sourcePoint" />
            <mxPoint x="440" y="140" as="targetPoint" />
            <Array as="points">
              <mxPoint x="390" y="140" />
            </Array>
          </mxGeometry>
        </mxCell>
        <mxCell id="NZATjLTDSDdueHZk3MDT-16" value="app insights" style="text;html=1;align=center;verticalAlign=middle;resizable=0;points=[];autosize=1;strokeColor=none;fillColor=none;" vertex="1" parent="1">
          <mxGeometry x="355" y="118" width="90" height="30" as="geometry" />
        </mxCell>
        <mxCell id="NZATjLTDSDdueHZk3MDT-17" value="" style="endArrow=classic;html=1;rounded=0;entryX=-0.023;entryY=0.5;entryDx=0;entryDy=0;entryPerimeter=0;" edge="1" parent="1" target="NZATjLTDSDdueHZk3MDT-1">
          <mxGeometry width="50" height="50" relative="1" as="geometry">
            <mxPoint x="240" y="230" as="sourcePoint" />
            <mxPoint x="350" y="230" as="targetPoint" />
          </mxGeometry>
        </mxCell>
        <mxCell id="NZATjLTDSDdueHZk3MDT-18" value="Azure App&lt;div&gt;Service (Web App)&lt;/div&gt;" style="text;html=1;align=center;verticalAlign=middle;whiteSpace=wrap;rounded=0;" vertex="1" parent="1">
          <mxGeometry x="425" y="210" width="60" height="30" as="geometry" />
        </mxCell>
        <mxCell id="NZATjLTDSDdueHZk3MDT-19" value="" style="endArrow=classic;html=1;rounded=0;exitX=0.191;exitY=0.07;exitDx=0;exitDy=0;exitPerimeter=0;dashed=1;dashPattern=1 1;" edge="1" parent="1" source="NZATjLTDSDdueHZk3MDT-1">
          <mxGeometry width="50" height="50" relative="1" as="geometry">
            <mxPoint x="220" y="110" as="sourcePoint" />
            <mxPoint x="270" y="60" as="targetPoint" />
            <Array as="points">
              <mxPoint x="310" y="200" />
              <mxPoint x="310" y="60" />
            </Array>
          </mxGeometry>
        </mxCell>
        <mxCell id="NZATjLTDSDdueHZk3MDT-21" value="" style="verticalLabelPosition=bottom;html=1;verticalAlign=top;align=center;strokeColor=none;fillColor=#00BEF2;shape=mxgraph.azure.azure_subscription;" vertex="1" parent="1">
          <mxGeometry x="560" y="388" width="50" height="35" as="geometry" />
        </mxCell>
        <mxCell id="NZATjLTDSDdueHZk3MDT-23" value="" style="shape=image;verticalLabelPosition=bottom;labelBackgroundColor=default;verticalAlign=top;aspect=fixed;imageAspect=0;image=data:image/png,iVBORw0KGgoAAAANSUhEUgAAANIAAACUCAMAAADRRocBAAAAn1BMVEX///8DW9n///0AVdnv8/sAU9kCWtpUgd+/zO7o7fq2wuQATNj19/wATtYASNgAQ9aOpuDd5PdNc95rieKTqejH0vGInubo7PWCnNtahNlPe94APdJpi96nvOrh6PfY4PZ2leGhtecAONJTetLI1u9Ga9sdYtuzwu5ojtlXd944bNmEoOQ4Yds5cNQqY9Z2mNxthOMAMNQnZ84APcTO2OhJVhgSAAAHJUlEQVR4nO2ZaXuiPBSGTUMiGhIobhWQxVJttdKZzvv/f9sb9oCidpnBmevcH1p2zsNJnpzEwQAAAAAAAAAAAAAAAAAAAAAAAAAAAAAAAAD4q9H6DuDbCVZ9R/DdxE9+3yF8Mzqd9x3CN7PCou8Qvhdt6opt30F8KwvPJM4/5XfBUiD8TyUptjklk0W6+Y9kSqcEkU2epG3UczDfgmVShPAk29Ym61HP4Xwdbb9GUhGNsz2d8knPAX0Zf8JljhB7zvaMkFMR9xzSF4kdglJJIi+FYkIpdoyeg/oS+itOBSH2kO8vOUIU/83F64rjVBDCKE/SKO1WiLwseo7r8zwUiigrnNvh2T63+o3r04xCRnNF2MmTFLB8n+yCnmP7HMFQKso0UVokaUJQjtj3G9vniJ+KHMmeNMyroNmGFmmj/L7n8D6BJq2uklQ43Fz6eXGMHPoN7zOEHFWK7PxQnODqGHL1a57i0wTfSk2ov1bBIzf3AmPPUA1NrnnMm6CY/9ZAr0ab8DJ0yh7zY0GdoswFrzByg1FK3duon1akCp/ywrD3Aqng3WWHGLtog8hNlLkjG1eSWOHXI07VLMnBaXrxOS9482bj11tYKYvKXkMR3hRJemOoSXWmkwCTF/8HuaaJ/m5GZp6QdKTlhWFpJm30pTR/3oWKPCRkPojwLSzDHAgqwyd20WOe+ZEkZM7OPsa38SYeLOT4rKzDGKMm2VfRRiNFdXk0PyE3DX+m11NpP9C3evCxxjwT0qfKMqFsNFG73WUOcfY5EcUv8p9H+LxO52zoqOyy4S2ybaXCCu1dYZJaaD/FgyBEwlwWJ++t5Jdpmmw3/UD9otnViErprvp6D6KdJJmmcxMnzcNZAR+sUVL3ui03hRAmk384xixvBFPGH6srDIeX47jmsPXMf5J3mD/yI7rNGOOYM87s821ExcJKd6ljNjxxJAknZ3rJDFEzyw6u5iapwIcSy5G2msc+JXhZXWEMsSglDYkZDN2dtbXCXNEG88M2CIJoQ8jrtV30fldLwkg54dv8SBN56H7QlJP801sC18keGAWDxRCTormdkUTe3DD9MNnHGSEsnMFduhknhHvXKTLmSqcxGzYdKGIL6Gtn9v2Euv/lgfFTRmKEnA1L9d2SkFACdxiprtNlG7rOI/RykJUGV9+fM9scaeJhl5HrJt7l54xnToZH51eMJOW95ySZ9aKA72JamYIxIfSqAc94rFqXdL12dbZtVRCp8K40HYgoe5DO1MByZpTUt56RhJVZjMVwWLfgPcZXtbxt5WsUsflRBiKznaau8dY36+rCdzBrTYO1V0JqzzgjiSmZOGBmaRV7in/cXSGJ102LJic6wPzI9tj45INCTrxRaQUWp6/N0x5Tm+w5x1MezxB9sisSRK6RtGd1w+L7EzdoE9YqIgg6vkrGJZsoxSWyX+KGcotjW2mKU660IUPqUCQp31U+k3BWwgl7uSwpxqiey+5O+onvkIYiisxTFXlEakGEYELpUHn9lpJGzduWJE5LEoh4lsrlJdLUROokddhJy8plAviJnzJeKLYnFZ7TaMaBzUUjmmbDc7okEfrhn1a3qC5NKe1051R3PUOkiIRH+dc3dDOuRlXD8BOMq2QaHhNh43KLYKUgSmiHpKF0mY8txy+GVQVOkeheBdm6l4z8bk6o3Tji4XJ5M+2w3GkmNsL0qdoZCdQhKRLY+diPW0qxTXFy5nNYLSvHbSO/tzFpttvARLyIUxfpnKPBVia1OhSyLkkjl7IPtTxf6UjIPLemZYSsNWdvvWjFKWl9TllvetkwuZB1ftv3fZvwsNjW5dSmQ9JgwhGrv0ZwcZ3GU6rS4vVdLJakoanVHuRp4rRuWQnEUpOTnR97/n1F/p49oTz0NUMbRSzZdUryN4S6kbxOXhi//Tw9ItbEJsrXUikmHF+Yi9w7eENpXWg0DWxGqqAqDHlsmi4Gpv2VFzDm5vldPHHEk3Af7lysL3GXpMFsx5HYePN5eGBsfWl11CZyGBNyvpgcll50yViCZgWLkVrDeWvBjh4Qrk05fdLNdAZYYa6LJhs4ppzVmcK1xwPH/VlKsqvN8r3PTMgwhSnM3fTCr1wRfV+G1mo8iwN/oV22SpnU2sjTilw5Nx6Pj7Psj8dbI/3bpLTBkb4fvh/CrdyPx+MiWGNWbZZoseU5705o6Rcn6pqWTsvurqkD87eF6oRQNj3l1XcnH5MdvTtCeaQM4a51/6knGemFg6sj7eYum5Bqfjy2Jodfrts0COkQX3/FH0PqWNwHwXg195yEu67gPJPTlNRY2bpVjIX/n75dRftw8o7c9Xrtyq4tXSrzKqKQF6fspf8FyAukimI9kvVuNN1PU+Y1oZeyzHjMcBznql+cbgWjTT6vXKiM/JvPEgAAAAAAAAAAAAAAAAAAAAAAAAAAAAAAAAAAAAAAAAD8Kf4HZ5N59u/Zv2kAAAAASUVORK5CYII=;" vertex="1" parent="1">
          <mxGeometry x="130" y="350" width="110.68" height="78" as="geometry" />
        </mxCell>
        <mxCell id="NZATjLTDSDdueHZk3MDT-25" value="Microsoft&lt;div&gt;Teams&lt;/div&gt;" style="text;html=1;align=center;verticalAlign=middle;resizable=0;points=[];autosize=1;strokeColor=none;fillColor=none;" vertex="1" parent="1">
          <mxGeometry x="5" y="273" width="70" height="40" as="geometry" />
        </mxCell>
        <mxCell id="NZATjLTDSDdueHZk3MDT-26" value="messaging" style="text;html=1;align=center;verticalAlign=middle;whiteSpace=wrap;rounded=0;" vertex="1" parent="1">
          <mxGeometry x="270.63" y="228" width="60" height="30" as="geometry" />
        </mxCell>
        <mxCell id="NZATjLTDSDdueHZk3MDT-27" value="" style="endArrow=classic;html=1;rounded=0;dashed=1;dashPattern=8 8;" edge="1" parent="1">
          <mxGeometry width="50" height="50" relative="1" as="geometry">
            <mxPoint x="190" y="200" as="sourcePoint" />
            <mxPoint x="60" y="200" as="targetPoint" />
          </mxGeometry>
        </mxCell>
        <mxCell id="NZATjLTDSDdueHZk3MDT-28" value="connects" style="text;html=1;align=center;verticalAlign=middle;whiteSpace=wrap;rounded=0;" vertex="1" parent="1">
          <mxGeometry x="100" y="180" width="50" height="23" as="geometry" />
        </mxCell>
        <mxCell id="NZATjLTDSDdueHZk3MDT-29" value="built on" style="text;html=1;align=center;verticalAlign=middle;resizable=0;points=[];autosize=1;strokeColor=none;fillColor=none;" vertex="1" parent="1">
          <mxGeometry x="306" y="70" width="60" height="30" as="geometry" />
        </mxCell>
      </root>
    </mxGraphModel>
  </diagram>
</mxfile>
